<svg width="20" height="20" viewBox="0 0 20 20" fill="none" xmlns="http://www.w3.org/2000/svg">
<g clip-path="url(#clip0_14293_13389)">
<path d="M5.83333 8.33333H2.5C1.11917 8.33333 0 9.4525 0 10.8333V17.5C0 18.8808 1.11917 20 2.5 20H5.83333C7.21417 20 8.33333 18.8808 8.33333 17.5V10.8333C8.33333 9.4525 7.21417 8.33333 5.83333 8.33333ZM2.91667 17.5H2.5C2.04 17.5 1.66667 17.1267 1.66667 16.6667C1.66667 16.2067 2.04 15.8333 2.5 15.8333H2.91667C3.37667 15.8333 3.75 16.2067 3.75 16.6667C3.75 17.1267 3.37667 17.5 2.91667 17.5ZM2.91667 15H2.5C2.04 15 1.66667 14.6267 1.66667 14.1667C1.66667 13.7067 2.04 13.3333 2.5 13.3333H2.91667C3.37667 13.3333 3.75 13.7067 3.75 14.1667C3.75 14.6267 3.37667 15 2.91667 15ZM5.83333 17.5H5.41667C4.95667 17.5 4.58333 17.1267 4.58333 16.6667C4.58333 16.2067 4.95667 15.8333 5.41667 15.8333H5.83333C6.29333 15.8333 6.66667 16.2067 6.66667 16.6667C6.66667 17.1267 6.29333 17.5 5.83333 17.5ZM5.83333 15H5.41667C4.95667 15 4.58333 14.6267 4.58333 14.1667C4.58333 13.7067 4.95667 13.3333 5.41667 13.3333H5.83333C6.29333 13.3333 6.66667 13.7067 6.66667 14.1667C6.66667 14.6267 6.29333 15 5.83333 15ZM5.83333 12.5H2.5C2.04 12.5 1.66667 12.1267 1.66667 11.6667C1.66667 11.2067 2.04 10.8333 2.5 10.8333H5.83333C6.29333 10.8333 6.66667 11.2067 6.66667 11.6667C6.66667 12.1267 6.29333 12.5 5.83333 12.5ZM20 2.5C20 2.96 19.6267 3.33333 19.1667 3.33333H9.16667C8.70667 3.33333 8.33333 2.96 8.33333 2.5V2.08333C8.33333 1.31333 8.1 0.596667 7.7 0H17.5C18.8808 0 20 1.11917 20 2.5ZM17.5 5V16.6667C17.5 18.5075 16.0075 20 14.1667 20H9.16417C9.68833 19.3033 10 18.4375 10 17.5V10.8333C10 8.53583 8.13083 6.66667 5.83333 6.66667H2.5V2.2025C2.5 1.1125 3.28417 0.119167 4.36833 0.0108333C5.615 -0.114167 6.66667 0.861667 6.66667 2.08333V2.5C6.66667 3.88083 7.78583 5 9.16667 5H17.5Z" fill="white"/>
</g>
<defs>
<clipPath id="clip0_14293_13389">
<rect width="20" height="20" fill="white"/>
</clipPath>
</defs>
</svg>
