<svg width="20" height="20" viewBox="0 0 20 20" fill="none" xmlns="http://www.w3.org/2000/svg">
<g clip-path="url(#clip0_14293_13312)">
<path d="M15.4167 1.66667H15V1.25C15 0.559167 14.44 0 13.75 0C13.06 0 12.5 0.559167 12.5 1.25V1.66667H7.5V1.25C7.5 0.559167 6.94 0 6.25 0C5.56 0 5 0.559167 5 1.25V1.66667H4.58333C2.05667 1.66667 0 3.7225 0 6.25V15.4167C0 17.9442 2.05667 20 4.58333 20H15.4167C17.9433 20 20 17.9442 20 15.4167V6.25C20 3.7225 17.9433 1.66667 15.4167 1.66667ZM15.4167 17.5H4.58333C3.43417 17.5 2.5 16.565 2.5 15.4167V7.5H17.5V15.4167C17.5 16.565 16.5658 17.5 15.4167 17.5ZM8.33333 10.4167V12.0833C8.33333 12.7733 7.77333 13.3333 7.08333 13.3333H5.41667C4.72667 13.3333 4.16667 12.7733 4.16667 12.0833V10.4167C4.16667 9.72667 4.72667 9.16667 5.41667 9.16667H7.08333C7.77333 9.16667 8.33333 9.72667 8.33333 10.4167Z" fill="white"/>
</g>
<defs>
<clipPath id="clip0_14293_13312">
<rect width="20" height="20" fill="white"/>
</clipPath>
</defs>
</svg>
