<svg width="20" height="20" viewBox="0 0 20 20" fill="none" xmlns="http://www.w3.org/2000/svg">
<g clip-path="url(#clip0_14293_13297)">
<path d="M15.5942 9.99985H11.6667C10.7462 9.99985 10 9.25364 10 8.33317V4.39485C10.0023 3.61789 9.64323 2.88399 9.02835 2.40903C8.44569 1.94762 7.68171 1.78317 6.96085 1.96403C2.06124 3.18028 -0.924736 8.13821 0.291553 13.0379C1.14847 16.4899 3.93003 19.1314 7.42171 19.809C12.1916 20.722 16.8458 17.7564 18.0334 13.0473C18.2149 12.3256 18.0508 11.5604 17.5892 10.9765C17.1088 10.3627 16.3737 10.0028 15.5942 9.99985Z" fill="white"/>
<path d="M19.7091 6.205C19.5189 5.49789 19.2356 4.81918 18.8666 4.18668C17.7569 2.28285 15.9441 0.890781 13.8183 0.31C13.6783 0.272227 13.365 0.25 13.365 0.25C13.253 0.250039 12.7708 0.25 12.3891 0.55918C11.8282 1.00062 11.74 1.5025 11.7316 1.54168C11.7025 1.66457 11.6874 1.79039 11.6866 1.91668V5.83336C11.6866 7.21406 12.8059 8.33336 14.1866 8.33336H18.1191C18.6409 8.33484 19.1319 8.08715 19.4408 7.66668C19.6693 7.35867 19.7868 6.98242 19.7741 6.59918C19.7675 6.46574 19.7457 6.33348 19.7091 6.205Z" fill="white"/>
</g>
<defs>
<clipPath id="clip0_14293_13297">
<rect width="20" height="20" fill="white"/>
</clipPath>
</defs>
</svg>
