<svg width="24" height="24" viewBox="0 0 24 24" fill="none" xmlns="http://www.w3.org/2000/svg">
<g clip-path="url(#clip0_14293_13332)">
<path d="M12 0C9.239 0 7 2.239 7 5C7 7.761 9.239 10 12 10C14.761 10 17 7.761 17 5C17 2.239 14.761 0 12 0ZM14 6H13V7C13 7.552 12.552 8 12 8C11.448 8 11 7.552 11 7V6H10C9.448 6 9 5.552 9 5C9 4.448 9.448 4 10 4H11V3C11 2.448 11.448 2 12 2C12.552 2 13 2.448 13 3V4H14C14.552 4 15 4.448 15 5C15 5.552 14.552 6 14 6ZM24 14V22C24 23.105 23.105 24 22 24C20.895 24 20 23.105 20 22C20 20.895 20.895 20 22 20V17H2V20C3.105 20 4 20.895 4 22C4 23.105 3.105 24 2 24C0.895 24 0 23.105 0 22V3C0 2.448 0.447 2 1 2C1.553 2 2 2.448 2 3V10.026C2.838 9.391 3.87 9 5 9H6.26C7.525 10.812 9.622 12 12 12C14.378 12 16.475 10.812 17.74 9H19C21.757 9 24 11.243 24 14Z" fill="white"/>
</g>
<defs>
<clipPath id="clip0_14293_13332">
<rect width="24" height="24" fill="white"/>
</clipPath>
</defs>
</svg>
