<svg width="20" height="20" viewBox="0 0 20 20" fill="none" xmlns="http://www.w3.org/2000/svg">
<g clip-path="url(#clip0_14293_13336)">
<path d="M20 19.1671C20 19.6271 19.6267 20.0005 19.1667 20.0005H0.833333C0.373333 20.0005 0 19.6271 0 19.1671C0 17.7863 1.11917 16.6671 2.5 16.6671H17.5C18.8808 16.6671 20 17.7863 20 19.1671ZM18.5092 5.16963L19.7592 3.90546C20.0833 3.57796 20.08 3.0513 19.7525 2.72713C19.4242 2.40296 18.8975 2.4063 18.5742 2.7338L17.3242 3.99796C17 4.32546 17.0033 4.85213 17.3308 5.17629C17.4933 5.3363 17.705 5.41713 17.9167 5.41713C18.1317 5.41713 18.3467 5.33463 18.5092 5.16963ZM15.3233 2.46713L15.9708 1.21713C16.1825 0.808795 16.0225 0.305462 15.6142 0.0937952C15.2075 -0.117871 14.7025 0.0404619 14.4908 0.450462L13.8433 1.70046C13.6317 2.1088 13.7917 2.61213 14.2 2.8238C14.3217 2.88713 14.4533 2.91713 14.5825 2.91713C14.8833 2.91713 15.175 2.7538 15.3233 2.46713ZM2.66917 5.17629C2.99667 4.85213 2.99917 4.32546 2.67583 3.99796L1.42583 2.7338C1.10333 2.4063 0.574167 2.4038 0.2475 2.72713C-0.08 3.0513 -0.0825 3.57796 0.240833 3.90546L1.49083 5.16963C1.65333 5.33463 1.86833 5.41713 2.08333 5.41713C2.295 5.41713 2.5075 5.3363 2.66917 5.17629ZM5.8 2.8238C6.20833 2.61213 6.36833 2.10963 6.15667 1.70046L5.50917 0.450462C5.29667 0.0404619 4.7925 -0.117871 4.38583 0.0937952C3.9775 0.305462 3.8175 0.807962 4.02917 1.21713L4.67667 2.46713C4.825 2.7538 5.11583 2.91713 5.4175 2.91713C5.54667 2.91713 5.6775 2.88713 5.8 2.8238ZM17.5 10.8338V14.1671C17.5 14.628 17.1275 15.0005 16.6667 15.0005H3.33333C2.8725 15.0005 2.5 14.628 2.5 14.1671V10.8338C2.5 6.69796 5.86417 3.3338 10 3.3338C14.1358 3.3338 17.5 6.69796 17.5 10.8338ZM10.8333 8.33379C10.8333 7.87296 10.4608 7.50046 10 7.50046C8.16167 7.50046 6.66667 8.99546 6.66667 10.8338C6.66667 11.2946 7.03917 11.6671 7.5 11.6671C7.96083 11.6671 8.33333 11.2946 8.33333 10.8338C8.33333 9.91463 9.08083 9.16713 10 9.16713C10.4608 9.16713 10.8333 8.79463 10.8333 8.33379Z" fill="white"/>
</g>
<defs>
<clipPath id="clip0_14293_13336">
<rect width="20" height="20" fill="white"/>
</clipPath>
</defs>
</svg>
