<svg width="20" height="20" viewBox="0 0 20 20" fill="none" xmlns="http://www.w3.org/2000/svg">
<g clip-path="url(#clip0_14293_13362)">
<path d="M20 10C20 10.46 19.6267 10.8333 19.1667 10.8333H15C14.54 10.8333 14.1667 10.46 14.1667 10C14.1667 9.54 14.54 9.16667 15 9.16667H19.1667C19.6267 9.16667 20 9.54 20 10ZM19.1667 16.6667H15C14.54 16.6667 14.1667 17.04 14.1667 17.5C14.1667 17.96 14.54 18.3333 15 18.3333H19.1667C19.6267 18.3333 20 17.96 20 17.5C20 17.04 19.6267 16.6667 19.1667 16.6667ZM8.33333 3.33333H19.1667C19.6267 3.33333 20 2.96 20 2.5C20 2.04 19.6267 1.66667 19.1667 1.66667H8.33333C7.87333 1.66667 7.5 2.04 7.5 2.5C7.5 2.96 7.87333 3.33333 8.33333 3.33333ZM11.6667 9.16667V10.8333C11.6667 11.7525 10.9192 12.5 10 12.5H8.33333C7.41417 12.5 6.66667 11.7525 6.66667 10.8333H3.33333V15C3.33333 15.9192 4.08083 16.6667 5 16.6667H6.66667C6.66667 15.7475 7.41417 15 8.33333 15H10C10.9192 15 11.6667 15.7475 11.6667 16.6667V18.3333C11.6667 19.2525 10.9192 20 10 20H8.33333C7.41417 20 6.66667 19.2525 6.66667 18.3333H5C3.16167 18.3333 1.66667 16.8383 1.66667 15V5C0.7475 5 0 4.2525 0 3.33333V1.66667C0 0.7475 0.7475 0 1.66667 0H3.33333C4.2525 0 5 0.7475 5 1.66667V3.33333C5 4.2525 4.2525 5 3.33333 5V9.16667H6.66667C6.66667 8.2475 7.41417 7.5 8.33333 7.5H10C10.9192 7.5 11.6667 8.2475 11.6667 9.16667Z" fill="white"/>
</g>
<defs>
<clipPath id="clip0_14293_13362">
<rect width="20" height="20" fill="white"/>
</clipPath>
</defs>
</svg>
