<svg width="20" height="20" viewBox="0 0 20 20" fill="none" xmlns="http://www.w3.org/2000/svg">
<g clip-path="url(#clip0_14293_13305)">
<path d="M3.75 5.83295C3.36682 5.83403 2.98722 5.75909 2.63319 5.61247C2.27916 5.46585 1.95773 5.25047 1.6875 4.97879L0.416669 3.84962C0.169134 3.62861 0.0195344 3.31831 0.000780791 2.987C-0.00850507 2.82295 0.0146121 2.65867 0.0688123 2.50356C0.123013 2.34844 0.207235 2.20552 0.316669 2.08295C0.426104 1.96039 0.558609 1.86057 0.706618 1.78922C0.854627 1.71786 1.01524 1.67635 1.17929 1.66706C1.51061 1.64831 1.8358 1.76194 2.08334 1.98295L3.40334 3.16129C3.44632 3.21208 3.49925 3.25352 3.55888 3.28304C3.61851 3.31257 3.68355 3.32956 3.75 3.33295C3.8603 3.33293 3.96608 3.28918 4.04417 3.21129L7.055 0.344619C7.29675 0.125866 7.6144 0.0102221 7.9402 0.0223505C8.26601 0.0344789 8.57418 0.17342 8.799 0.409541C9.02381 0.645662 9.14748 0.960276 9.14362 1.28628C9.13976 1.61229 9.00868 1.92389 8.77834 2.15462L5.79 4.99962C5.5215 5.26589 5.2031 5.47656 4.85304 5.61956C4.50298 5.76256 4.12814 5.83508 3.75 5.83295ZM20 2.91629C20 2.58477 19.8683 2.26682 19.6339 2.0324C19.3995 1.79798 19.0815 1.66629 18.75 1.66629H12.0833C11.7518 1.66629 11.4339 1.79798 11.1995 2.0324C10.965 2.26682 10.8333 2.58477 10.8333 2.91629C10.8333 3.24781 10.965 3.56575 11.1995 3.80017C11.4339 4.03459 11.7518 4.16629 12.0833 4.16629H18.75C19.0815 4.16629 19.3995 4.03459 19.6339 3.80017C19.8683 3.56575 20 3.24781 20 2.91629ZM5.79 11.6663L8.77834 8.82129C9.00868 8.59055 9.13976 8.27896 9.14362 7.95295C9.14748 7.62694 9.02381 7.31233 8.799 7.07621C8.57418 6.84009 8.26601 6.70115 7.9402 6.68902C7.6144 6.67689 7.29675 6.79253 7.055 7.01129L4.04417 9.87795C3.96603 9.95607 3.86007 9.99995 3.74959 9.99995C3.6391 9.99995 3.53314 9.95607 3.455 9.87795L2.13417 8.55628C1.89967 8.32179 1.58163 8.19005 1.25 8.19005C0.918376 8.19005 0.600332 8.32179 0.365836 8.55628C0.131341 8.79078 -0.00039772 9.10883 -0.00039772 9.44045C-0.00039772 9.77208 0.131341 10.0901 0.365836 10.3246L1.6875 11.6455C2.2308 12.1884 2.96637 12.4952 3.73447 12.4991C4.50258 12.503 5.24121 12.2037 5.79 11.6663ZM20 9.58295C20 9.25143 19.8683 8.93349 19.6339 8.69907C19.3995 8.46465 19.0815 8.33295 18.75 8.33295H12.0833C11.7518 8.33295 11.4339 8.46465 11.1995 8.69907C10.965 8.93349 10.8333 9.25143 10.8333 9.58295C10.8333 9.91447 10.965 10.2324 11.1995 10.4668C11.4339 10.7013 11.7518 10.833 12.0833 10.833H18.75C19.0815 10.833 19.3995 10.7013 19.6339 10.4668C19.8683 10.2324 20 9.91447 20 9.58295ZM5.79 18.333L8.77834 15.488C9.00868 15.2572 9.13976 14.9456 9.14362 14.6196C9.14748 14.2936 9.02381 13.979 8.799 13.7429C8.57418 13.5068 8.26601 13.3678 7.9402 13.3557C7.6144 13.3436 7.29675 13.4592 7.055 13.678L4.04417 16.5446C3.96608 16.6225 3.8603 16.6663 3.75 16.6663C3.68355 16.6629 3.61851 16.6459 3.55888 16.6164C3.49925 16.5869 3.44632 16.5454 3.40334 16.4946L2.08334 15.3163C1.8358 15.0953 1.51061 14.9816 1.17929 15.0004C0.847978 15.0192 0.537683 15.1688 0.316669 15.4163C0.0956557 15.6638 -0.0179728 15.989 0.000780791 16.3203C0.0195344 16.6516 0.169134 16.9619 0.416669 17.183L1.68584 18.3121C2.22921 18.8556 2.96512 19.1627 3.73364 19.1666C4.50215 19.1705 5.24114 18.8709 5.79 18.333ZM20 16.2496C20 15.9181 19.8683 15.6002 19.6339 15.3657C19.3995 15.1313 19.0815 14.9996 18.75 14.9996H12.0833C11.7518 14.9996 11.4339 15.1313 11.1995 15.3657C10.965 15.6002 10.8333 15.9181 10.8333 16.2496C10.8333 16.5811 10.965 16.8991 11.1995 17.1335C11.4339 17.3679 11.7518 17.4996 12.0833 17.4996H18.75C19.0815 17.4996 19.3995 17.3679 19.6339 17.1335C19.8683 16.8991 20 16.5811 20 16.2496Z" fill="white"/>
</g>
<defs>
<clipPath id="clip0_14293_13305">
<rect width="20" height="20" fill="white"/>
</clipPath>
</defs>
</svg>
