<svg width="20" height="20" viewBox="0 0 20 20" fill="none" xmlns="http://www.w3.org/2000/svg">
<g clip-path="url(#clip0_14293_13355)">
<path d="M15 10C12.2383 10 10 12.2383 10 15C10 17.7617 12.2383 20 15 20C17.7617 20 20 17.7617 20 15C20 12.2383 17.7617 10 15 10ZM18.0692 14.76L15.8167 16.9383C15.44 17.31 14.94 17.4975 14.4392 17.4975C13.9383 17.4975 13.4367 17.31 13.0533 16.9358L11.925 15.8258C11.5958 15.5033 11.5917 14.9758 11.9133 14.6475C12.235 14.3183 12.7625 14.3133 13.0917 14.6358L14.22 15.745C14.34 15.8633 14.5367 15.8608 14.655 15.7433L16.9158 13.5567C17.2467 13.2392 17.775 13.2483 18.0942 13.5808C18.4125 13.9125 18.4017 14.44 18.07 14.7592L18.0692 14.76ZM8.33333 15C7.87333 15 7.5 14.6275 7.5 14.1667V12.5C7.5 12.0392 7.87333 11.6667 8.33333 11.6667C8.62917 11.6667 8.87667 11.83 9.025 12.0617C10.1133 9.85667 12.3792 8.33333 15 8.33333C15.2933 8.33333 15.58 8.35917 15.8642 8.39583C15.43 7.80083 14.8492 7.31917 14.1667 7.02V5.83333C14.1667 2.61667 11.55 0 8.33333 0C5.11667 0 2.5 2.61667 2.5 5.83333V7.02C1.03083 7.665 0 9.12917 0 10.8333V15.8333C0 18.1308 1.86917 20 4.16667 20H10.605C9.21583 18.7775 8.33333 16.9917 8.33333 15ZM4.16667 5.83333C4.16667 3.53583 6.03583 1.66667 8.33333 1.66667C10.6308 1.66667 12.5 3.53583 12.5 5.83333V6.66667H4.16667V5.83333Z" fill="white"/>
</g>
<defs>
<clipPath id="clip0_14293_13355">
<rect width="20" height="20" fill="white"/>
</clipPath>
</defs>
</svg>
