<svg width="20" height="20" viewBox="0 0 20 20" fill="none" xmlns="http://www.w3.org/2000/svg">
<g clip-path="url(#clip0_14293_13324)">
<path d="M5.83333 3.33379C5.83333 2.87295 6.20583 2.50045 6.66667 2.50045H9.97083L11.39 0.371286C11.56 0.114619 11.86 -0.023714 12.1642 0.00461931C12.47 0.033786 12.735 0.230453 12.8525 0.512953L14.4067 4.24379L15.6092 2.80045C15.7675 2.61045 16.0025 2.50129 16.25 2.50129H19.1667C19.6275 2.50129 20 2.87379 20 3.33462C20 3.79545 19.6275 4.16795 19.1667 4.16795H16.6408L14.8075 6.36879C14.6483 6.55962 14.4117 6.66795 14.1667 6.66795C14.125 6.66795 14.0833 6.66462 14.0425 6.65879C13.7542 6.61462 13.51 6.42379 13.3983 6.15545L11.9142 2.59295L11.1108 3.79712C10.9558 4.02879 10.6958 4.16795 10.4175 4.16795H6.6675C6.20667 4.16795 5.83417 3.79545 5.83417 3.33462L5.83333 3.33379ZM5.41667 11.6671C6.5675 11.6671 7.5 10.7346 7.5 9.58379C7.5 8.43295 6.5675 7.50045 5.41667 7.50045C4.26583 7.50045 3.33333 8.43295 3.33333 9.58379C3.33333 10.7346 4.26583 11.6671 5.41667 11.6671ZM16.7225 6.67295L16.0875 7.43462C15.6108 8.00712 14.9108 8.33379 14.1667 8.33379C14.0492 8.33379 13.9325 8.32545 13.8158 8.30962C12.9342 8.17545 12.1683 7.53462 11.8342 6.73462C10.3125 7.04295 9.16667 8.38795 9.16667 10.0005V11.6671H20V10.0005C20 8.17879 18.5367 6.70295 16.7225 6.67295ZM1.66667 4.16712C1.66667 3.70712 1.29333 3.33379 0.833333 3.33379C0.373333 3.33379 0 3.70712 0 4.16712V19.1671C0 19.6271 0.373333 20.0005 0.833333 20.0005C1.29333 20.0005 1.66667 19.6271 1.66667 19.1671V17.5005H18.3333V19.1671C18.3333 19.6271 18.7067 20.0005 19.1667 20.0005C19.6267 20.0005 20 19.6271 20 19.1671V13.3338H1.66667V4.16712Z" fill="white"/>
</g>
<defs>
<clipPath id="clip0_14293_13324">
<rect width="20" height="20" fill="white"/>
</clipPath>
</defs>
</svg>
