<svg width="20" height="20" viewBox="0 0 20 20" fill="none" xmlns="http://www.w3.org/2000/svg">
<g clip-path="url(#clip0_14293_13328)">
<path d="M14.1666 20.0003H12.5C12.04 20.0003 11.6666 19.6278 11.6666 19.167C11.6666 18.7061 12.04 18.3336 12.5 18.3336H14.1666C14.6266 18.3336 15 18.7061 15 19.167C15 19.6278 14.6266 20.0003 14.1666 20.0003ZM9.99997 19.167C9.99997 18.7061 9.62663 18.3336 9.16663 18.3336H7.49997C7.03997 18.3336 6.66663 18.7061 6.66663 19.167C6.66663 19.6278 7.03997 20.0003 7.49997 20.0003H9.16663C9.62663 20.0003 9.99997 19.6278 9.99997 19.167ZM20 19.167C20 18.7061 19.6266 18.3336 19.1666 18.3336H17.5C17.04 18.3336 16.6666 18.7061 16.6666 19.167C16.6666 19.6278 17.04 20.0003 17.5 20.0003H19.1666C19.6266 20.0003 20 19.6278 20 19.167ZM19.3183 0.659479C18.4391 -0.220521 16.9 -0.218021 16.0258 0.656146L8.41997 8.18698L11.7783 11.4845L19.3183 3.95615C19.7583 3.51615 20.0008 2.93115 20.0008 2.30781C20.0008 1.68448 19.7583 1.09948 19.3191 0.659479H19.3183ZM10.5516 12.6153C9.9433 14.6945 8.28163 16.5278 6.29663 17.4053C5.04913 17.9561 3.72747 18.2636 2.36747 18.3186C2.1883 18.3261 1.87913 18.3186 1.5283 18.3186C0.884134 18.3186 0.517467 18.0486 0.323301 17.822C0.0258008 17.4745 -0.0316992 17.0336 0.0141341 16.737C0.0416341 16.5611 0.124967 16.3986 0.251634 16.272L7.23497 9.35781L10.5508 12.6145L10.5516 12.6153Z" fill="white"/>
</g>
<defs>
<clipPath id="clip0_14293_13328">
<rect width="20" height="20" fill="white"/>
</clipPath>
</defs>
</svg>
