<svg width="20" height="20" viewBox="0 0 20 20" fill="none" xmlns="http://www.w3.org/2000/svg">
<path d="M18.2563 7.4003C17.8916 7.34732 17.5435 7.21276 17.238 7.00663C16.9326 6.80049 16.6775 6.5281 16.4919 6.20973C16.3063 5.89136 16.1949 5.53522 16.166 5.16783C16.1371 4.80044 16.1915 4.43127 16.325 4.0878C16.4099 3.86325 16.4224 3.61776 16.3608 3.38575C16.2991 3.15374 16.1664 2.94684 15.9813 2.79405C15.1638 2.10759 14.2333 1.56832 13.2313 1.2003C13.0031 1.11554 12.754 1.10495 12.5194 1.17004C12.2849 1.23512 12.0769 1.37257 11.925 1.5628C11.6964 1.85508 11.4043 2.09148 11.0708 2.25406C10.7372 2.41663 10.3711 2.50113 10 2.50113C9.62897 2.50113 9.26279 2.41663 8.92926 2.25406C8.59572 2.09148 8.30359 1.85508 8.07501 1.5628C7.92315 1.37257 7.71513 1.23512 7.48059 1.17004C7.24604 1.10495 6.99694 1.11554 6.76876 1.2003C5.84356 1.54007 4.97851 2.02534 4.20626 2.6378C4.0116 2.7919 3.87139 3.00428 3.80616 3.24383C3.74093 3.48338 3.75411 3.73753 3.84376 3.96905C3.98799 4.3216 4.04757 4.70305 4.01775 5.0828C3.98792 5.46254 3.86951 5.83001 3.67201 6.15573C3.47452 6.48144 3.20343 6.75634 2.88051 6.95836C2.55758 7.16039 2.1918 7.28392 1.81251 7.31905C1.56627 7.34538 1.33498 7.45007 1.15271 7.61772C0.970433 7.78537 0.846801 8.00711 0.800014 8.2503C0.683637 8.82636 0.625014 9.4126 0.625014 10.0003C0.624158 10.4923 0.663876 10.9836 0.743764 11.469C0.783523 11.72 0.904855 11.9509 1.089 12.126C1.27315 12.3011 1.50985 12.4107 1.76251 12.4378C2.15014 12.4742 2.5234 12.6029 2.85108 12.8131C3.17875 13.0234 3.4513 13.309 3.64591 13.6462C3.84052 13.9834 3.95152 14.3623 3.96963 14.7512C3.98775 15.1401 3.91244 15.5277 3.75001 15.8815C3.64372 16.1117 3.61735 16.3708 3.6751 16.6176C3.73285 16.8645 3.8714 17.0849 4.06876 17.244C4.88133 17.918 5.80287 18.4486 6.79376 18.8128C6.92048 18.8567 7.05343 18.8799 7.18751 18.8815C7.37137 18.8811 7.55245 18.8367 7.71557 18.7519C7.87869 18.667 8.0191 18.5443 8.12501 18.394C8.34777 18.0695 8.64638 17.8042 8.99491 17.6212C9.34344 17.4383 9.73137 17.3431 10.125 17.344C10.5064 17.3445 10.8825 17.4341 11.2232 17.6055C11.5639 17.7769 11.8598 18.0255 12.0875 18.3315C12.239 18.5351 12.4535 18.6829 12.6977 18.7519C12.9418 18.8208 13.202 18.8071 13.4375 18.7128C14.3436 18.3481 15.1871 17.8441 15.9375 17.219C16.126 17.0632 16.2603 16.8516 16.3209 16.6146C16.3815 16.3776 16.3655 16.1276 16.275 15.9003C16.128 15.5523 16.0639 15.1749 16.0878 14.7978C16.1117 14.4208 16.2228 14.0545 16.4125 13.7278C16.6023 13.4011 16.8653 13.123 17.1809 12.9154C17.4966 12.7078 17.8561 12.5764 18.2313 12.5315C18.4745 12.4979 18.7007 12.3877 18.8771 12.2169C19.0536 12.0461 19.171 11.8236 19.2125 11.5815C19.3129 11.0602 19.3673 10.5311 19.375 10.0003C19.3751 9.44039 19.3228 8.8817 19.2188 8.33155C19.1766 8.09486 19.0609 7.87749 18.8881 7.71031C18.7153 7.54314 18.4942 7.43467 18.2563 7.4003ZM13.125 10.0003C13.125 10.6184 12.9417 11.2226 12.5984 11.7365C12.255 12.2504 11.7669 12.6509 11.1959 12.8874C10.6249 13.1239 9.99655 13.1858 9.39036 13.0653C8.78417 12.9447 8.22734 12.647 7.79031 12.21C7.35327 11.773 7.05564 11.2161 6.93506 10.61C6.81448 10.0038 6.87637 9.37543 7.11289 8.80441C7.34941 8.23339 7.74995 7.74534 8.26386 7.40196C8.77776 7.05858 9.38195 6.8753 10 6.8753C10.8288 6.8753 11.6237 7.20454 12.2097 7.79059C12.7958 8.37664 13.125 9.1715 13.125 10.0003Z" fill="white"/>
</svg>
