<svg width="20" height="20" viewBox="0 0 20 20" fill="none" xmlns="http://www.w3.org/2000/svg">
<g clip-path="url(#clip0_14293_13319)">
<path d="M14.925 5.83333C14.5266 8.19417 12.4733 10 9.99995 10C7.52662 10 5.47412 8.19417 5.07495 5.83333H14.925ZM14.93 4.16667C14.7908 3.35083 14.4524 2.6025 13.9683 1.97L10.7083 4.16667H14.93ZM7.87662 4.16667L12.7358 0.82C11.9491 0.303333 11.0091 0 9.99995 0C7.52745 0 5.47412 1.80583 5.07495 4.16667H7.87662Z" fill="white"/>
<path d="M12.2155 18.2627C12.8268 18.2627 13.3229 18.6552 13.3229 19.1387C13.3229 19.6222 12.8268 20.0146 12.2155 20.0146H3.35569C1.91708 20.0146 1.14075 19.1124 1.14075 18.2627C1.14075 14.7729 4.38675 11.8796 8.61286 11.3496L10.7979 18.2627H12.2155Z" fill="white"/>
<path d="M12.5333 16.5362L10.8754 11.29C15.3518 11.6387 18.8592 14.6327 18.8592 18.2627V19.1387C18.8592 19.6231 18.3642 20.0146 17.7517 20.0146H15.333C15.457 19.7396 15.5368 19.447 15.5368 19.1387C15.5368 17.7757 14.2145 16.665 12.5333 16.5362Z" fill="white"/>
</g>
<defs>
<clipPath id="clip0_14293_13319">
<rect width="20" height="20" fill="white"/>
</clipPath>
</defs>
</svg>
